{"title":"Body.Language.2011.DVDRip.XviD-EXViD.","uid":7017629,"size":765659302,"categoryP":"video","categoryS":"movies","magnet":"?xt=urn:btih:10e15d8b96ed322b2c2a89b3ffd24e293dcb502f&amp;dn=Body.Language.2011.DVDRip.XviD-EXViD.&amp;tr=udp%3A%2F%2Ftracker.openbittorrent.com%3A80&amp;tr=udp%3A%2F%2Fopen.demonii.com%3A1337&amp;tr=udp%3A%2F%2Ftracker.coppersurfer.tk%3A6969&amp;tr=udp%3A%2F%2Fexodus.desync.com%3A6969","seeders":0,"leechers":0,"uploader":"moviesp2p","files":56,"time":1328718396,"description":"\nEXVID\n\nFilled the Archives\n\nWith:\n\nE240\n\nSP              (C) 2009\n\nBody.Language.2011.DVDRip.XviD-EXViD\n\nEXViD aims to iNTERNAL those releases which have been lost in the archives\nEXViD aims to PRE non-internal releases which have poor sources and are likely skipped by others\n &lt;a href=&quot;\nhttp://www.imdb.com/title/tt1920862&quot; rel=&quot;nofollow&quot; target=&quot;_NEW&quot;&gt;\nhttp://www.imdb.com/title/tt1920862&lt;/a&gt;\nSubtitles: NL, EN\nDate: 2012.02\n\nDirector: Jeffrey Elmont\n\nGenres: Drama  Music\n\nPlot\nAn hour before the five best Dutch dance crews fly to a contest in New York, the subsidized trip\nis cancelled. Five dancers from totally different crews don't want to give up their free plane\nticket and go anyway. In New York they realize what they've done. They have no money, no plan\nand no crew. But... They came to dance so there is only one thing to do. Together they form a\nnew crew and do everything they can to enter the contest they came for. In the mean time\nthey have to survive two weeks in New York without any cash\n\nCast\nFloris Bosveld  ...  Brian\nLorenzo van Velzen Bottazzi  ...  Samuel\nChandler Bullock  ...  (voice)\nLuciano Hiwat  ...  Bobby\nIngrid Jansen  ...  Nina\nSigourney Korper  ...  Tara\nBoris Schreurs  ...  Ray\nSabine Soetanto  ...  Dancer\nRuben Solognier  ...  Quincy\n\nStats\nFormat                          : AVI\nFormat/Info                      : Audio Video Interleave\nFile size                        : 700 MiB\nDuration                        : 1h 37mn\nOverall bit rate                : 1 006 Kbps\nWriting application              : VirtualDubMod 1.5.10.2 (build 2540/release\nWriting library                  : VirtualDubMod build 2540/release\n\nVideo\nID                              : 0\nFormat                          : MPEG-4 Visual\nFormat profile                  : Advanced SimpleL5\nFormat settings, BVOP            : Yes\nFormat settings, QPel            : No\nFormat settings, GMC            : No warppoints\nFormat settings, Matrix          : Default (H.263\nMuxing mode                      : Packed bitstream\nCodec ID                        : XVID\nCodec ID/Hint                    : XviD\nDuration                        : 1h 37mn\nBit rate                        : 871 Kbps\nWidth                            : 640 pixels\nHeight                          : 272 pixels\nDisplay aspect ratio            : 2.35:1\nFrame rate                      : 25.000 fps\nColor space                      : YUV\nChroma subsampling              : 4:2:0\nBit depth                        : 8 bits\nScan type                        : Progressive\nBits/(PixelFrame)              : 0.200\nStream size                      : 606 MiB (87\nWriting library                  : XviD 62\n\nAudio\nID                              : 1\nFormat                          : MPEG Audio\nFormat version                  : Version 1\nFormat profile                  : Layer 3\nMode                            : Joint stereo\nMode extension                  : MS Stereo\nCodec ID                        : 55\nCodec ID/Hint                    : MP3\nDuration                        : 1h 37mn\nBit rate mode                    : Variable\nBit rate                        : 128 Kbps\nChannel(s)                      : 2 channels\nSampling rate                    : 48.0 KHz\nStream size                      : 85.3 MiB (12\nAlignment                        : Aligned on interleaves\nInterleave, duration            : 24 ms (0.60 video frame\nInterleave, preload duration    : 523 ms\nWriting library                  : LAME3.98r\nEncoding settings                : -m j -V 4 -q 2 -lowpass 17 --abr 128\n\nRelease notes\nenjoy\n\nLooking for\n75TB Archives\nDUTCH/FLEMiSH Archives\n\nGreets: CRBS EPiSODE FiCO FLS iLS KLASSiGER LiPSYNC MADE NODLABS RUNNER SPRiNTER\n\nASCII DONE BY XXNFO 2oo9\n","torrent":{"xt":"urn:btih:10e15d8b96ed322b2c2a89b3ffd24e293dcb502f","amp;dn":"Body.Language.2011.DVDRip.XviD-EXViD.","amp;tr":["udp%3A%2F%2Ftracker.openbittorrent.com%3A80","udp%3A%2F%2Fopen.demonii.com%3A1337","udp%3A%2F%2Ftracker.coppersurfer.tk%3A6969","udp%3A%2F%2Fexodus.desync.com%3A6969"],"infoHash":"10e15d8b96ed322b2c2a89b3ffd24e293dcb502f","infoHashBuffer":{"type":"Buffer","data":[16,225,93,139,150,237,50,43,44,42,137,179,255,210,78,41,61,203,80,47]},"announce":[],"urlList":[]}}